<mxfile host="app.diagrams.net" agent="Mozilla/5.0 (Windows NT 10.0; Win64; x64) AppleWebKit/537.36 (KHTML, like Gecko) Chrome/132.0.0.0 Safari/537.36" version="25.0.3">
  <diagram name="第 1 页" id="WqESRx_fFTUSI_0ruRd6">
    <mxGraphModel dx="840" dy="493" grid="1" gridSize="10" guides="1" tooltips="1" connect="1" arrows="1" fold="1" page="1" pageScale="1" pageWidth="827" pageHeight="1169" math="0" shadow="0">
      <root>
        <mxCell id="0" />
        <mxCell id="1" parent="0" />
        <mxCell id="n9BNtuvzOKxnNitowUyj-19" value="机器人聊天后台管理系统" style="rounded=0;whiteSpace=wrap;html=1;" vertex="1" parent="1">
          <mxGeometry x="20" y="90" width="530" height="290" as="geometry" />
        </mxCell>
        <mxCell id="n9BNtuvzOKxnNitowUyj-21" value="" style="rounded=0;whiteSpace=wrap;html=1;" vertex="1" parent="1">
          <mxGeometry y="90" width="90" height="290" as="geometry" />
        </mxCell>
        <mxCell id="n9BNtuvzOKxnNitowUyj-22" value="聊天机器人系统" style="rounded=0;whiteSpace=wrap;html=1;" vertex="1" parent="1">
          <mxGeometry y="90" width="90" height="30" as="geometry" />
        </mxCell>
        <mxCell id="n9BNtuvzOKxnNitowUyj-23" value="应用配置" style="rounded=0;whiteSpace=wrap;html=1;" vertex="1" parent="1">
          <mxGeometry y="120" width="90" height="30" as="geometry" />
        </mxCell>
        <mxCell id="n9BNtuvzOKxnNitowUyj-24" value="菜单配置" style="rounded=0;whiteSpace=wrap;html=1;" vertex="1" parent="1">
          <mxGeometry y="150" width="90" height="30" as="geometry" />
        </mxCell>
        <mxCell id="n9BNtuvzOKxnNitowUyj-25" value="关键词配置" style="rounded=0;whiteSpace=wrap;html=1;" vertex="1" parent="1">
          <mxGeometry y="180" width="90" height="30" as="geometry" />
        </mxCell>
        <mxCell id="n9BNtuvzOKxnNitowUyj-26" value="系统配置" style="rounded=0;whiteSpace=wrap;html=1;" vertex="1" parent="1">
          <mxGeometry y="210" width="90" height="30" as="geometry" />
        </mxCell>
        <mxCell id="n9BNtuvzOKxnNitowUyj-28" value="" style="rounded=0;whiteSpace=wrap;html=1;" vertex="1" parent="1">
          <mxGeometry x="20" y="410" width="560" height="290" as="geometry" />
        </mxCell>
        <mxCell id="n9BNtuvzOKxnNitowUyj-29" value="" style="rounded=0;whiteSpace=wrap;html=1;" vertex="1" parent="1">
          <mxGeometry y="410" width="90" height="290" as="geometry" />
        </mxCell>
        <mxCell id="n9BNtuvzOKxnNitowUyj-30" value="聊天机器人系统" style="rounded=0;whiteSpace=wrap;html=1;" vertex="1" parent="1">
          <mxGeometry y="410" width="90" height="30" as="geometry" />
        </mxCell>
        <mxCell id="n9BNtuvzOKxnNitowUyj-31" value="应用配置" style="rounded=0;whiteSpace=wrap;html=1;fillColor=#ffe6cc;strokeColor=#d79b00;" vertex="1" parent="1">
          <mxGeometry y="440" width="90" height="30" as="geometry" />
        </mxCell>
        <mxCell id="n9BNtuvzOKxnNitowUyj-32" value="菜单配置" style="rounded=0;whiteSpace=wrap;html=1;" vertex="1" parent="1">
          <mxGeometry y="470" width="90" height="30" as="geometry" />
        </mxCell>
        <mxCell id="n9BNtuvzOKxnNitowUyj-33" value="关键词配置" style="rounded=0;whiteSpace=wrap;html=1;" vertex="1" parent="1">
          <mxGeometry y="500" width="90" height="30" as="geometry" />
        </mxCell>
        <mxCell id="n9BNtuvzOKxnNitowUyj-34" value="系统配置" style="rounded=0;whiteSpace=wrap;html=1;" vertex="1" parent="1">
          <mxGeometry y="530" width="90" height="30" as="geometry" />
        </mxCell>
        <mxCell id="n9BNtuvzOKxnNitowUyj-35" value="" style="rounded=0;whiteSpace=wrap;html=1;" vertex="1" parent="1">
          <mxGeometry x="90" y="410" width="490" height="30" as="geometry" />
        </mxCell>
        <mxCell id="n9BNtuvzOKxnNitowUyj-38" value="添加" style="rounded=0;whiteSpace=wrap;html=1;fillColor=#d5e8d4;strokeColor=#82b366;" vertex="1" parent="1">
          <mxGeometry x="100" y="445" width="40" height="20" as="geometry" />
        </mxCell>
        <mxCell id="n9BNtuvzOKxnNitowUyj-39" value="删除" style="rounded=0;whiteSpace=wrap;html=1;fillColor=#f8cecc;strokeColor=#b85450;" vertex="1" parent="1">
          <mxGeometry x="150" y="445" width="40" height="20" as="geometry" />
        </mxCell>
        <mxCell id="n9BNtuvzOKxnNitowUyj-42" value="ID" style="rounded=0;whiteSpace=wrap;html=1;fillColor=#eeeeee;strokeColor=#36393d;" vertex="1" parent="1">
          <mxGeometry x="120" y="470" width="40" height="20" as="geometry" />
        </mxCell>
        <mxCell id="n9BNtuvzOKxnNitowUyj-43" value="唯一key" style="rounded=0;whiteSpace=wrap;html=1;fillColor=#eeeeee;strokeColor=#36393d;" vertex="1" parent="1">
          <mxGeometry x="160" y="470" width="60" height="20" as="geometry" />
        </mxCell>
        <mxCell id="n9BNtuvzOKxnNitowUyj-44" value="应用名称" style="rounded=0;whiteSpace=wrap;html=1;fillColor=#eeeeee;strokeColor=#36393d;" vertex="1" parent="1">
          <mxGeometry x="220" y="470" width="60" height="20" as="geometry" />
        </mxCell>
        <mxCell id="n9BNtuvzOKxnNitowUyj-45" value="描述" style="rounded=0;whiteSpace=wrap;html=1;fillColor=#eeeeee;strokeColor=#36393d;" vertex="1" parent="1">
          <mxGeometry x="280" y="470" width="60" height="20" as="geometry" />
        </mxCell>
        <mxCell id="n9BNtuvzOKxnNitowUyj-46" value="创建时间" style="rounded=0;whiteSpace=wrap;html=1;fillColor=#eeeeee;strokeColor=#36393d;" vertex="1" parent="1">
          <mxGeometry x="340" y="470" width="80" height="20" as="geometry" />
        </mxCell>
        <mxCell id="n9BNtuvzOKxnNitowUyj-48" value="" style="rounded=0;whiteSpace=wrap;html=1;fillColor=#eeeeee;strokeColor=#36393d;" vertex="1" parent="1">
          <mxGeometry x="100" y="470" width="20" height="20" as="geometry" />
        </mxCell>
        <mxCell id="n9BNtuvzOKxnNitowUyj-49" value="" style="rounded=0;whiteSpace=wrap;html=1;" vertex="1" parent="1">
          <mxGeometry x="100" y="490" width="20" height="20" as="geometry" />
        </mxCell>
        <mxCell id="n9BNtuvzOKxnNitowUyj-51" value="1" style="rounded=0;whiteSpace=wrap;html=1;" vertex="1" parent="1">
          <mxGeometry x="120" y="490" width="40" height="20" as="geometry" />
        </mxCell>
        <mxCell id="n9BNtuvzOKxnNitowUyj-52" value="energy" style="rounded=0;whiteSpace=wrap;html=1;" vertex="1" parent="1">
          <mxGeometry x="160" y="490" width="60" height="20" as="geometry" />
        </mxCell>
        <mxCell id="n9BNtuvzOKxnNitowUyj-53" value="能管系统" style="rounded=0;whiteSpace=wrap;html=1;" vertex="1" parent="1">
          <mxGeometry x="220" y="490" width="60" height="20" as="geometry" />
        </mxCell>
        <mxCell id="n9BNtuvzOKxnNitowUyj-54" value="xxx" style="rounded=0;whiteSpace=wrap;html=1;" vertex="1" parent="1">
          <mxGeometry x="280" y="490" width="60" height="20" as="geometry" />
        </mxCell>
        <mxCell id="n9BNtuvzOKxnNitowUyj-55" value="&lt;font&gt;2025-01-02&lt;/font&gt;" style="rounded=0;whiteSpace=wrap;html=1;" vertex="1" parent="1">
          <mxGeometry x="340" y="490" width="80" height="20" as="geometry" />
        </mxCell>
        <mxCell id="n9BNtuvzOKxnNitowUyj-71" value="操作" style="rounded=0;whiteSpace=wrap;html=1;fillColor=#eeeeee;strokeColor=#36393d;" vertex="1" parent="1">
          <mxGeometry x="420" y="470" width="80" height="20" as="geometry" />
        </mxCell>
        <mxCell id="n9BNtuvzOKxnNitowUyj-72" value="编辑&amp;nbsp; &amp;nbsp;删除" style="rounded=0;whiteSpace=wrap;html=1;" vertex="1" parent="1">
          <mxGeometry x="420" y="490" width="80" height="20" as="geometry" />
        </mxCell>
        <mxCell id="n9BNtuvzOKxnNitowUyj-84" value="" style="rounded=0;whiteSpace=wrap;html=1;" vertex="1" parent="1">
          <mxGeometry x="670" y="410" width="230" height="250" as="geometry" />
        </mxCell>
        <mxCell id="n9BNtuvzOKxnNitowUyj-85" value="添加应用" style="text;html=1;align=center;verticalAlign=middle;resizable=0;points=[];autosize=1;strokeColor=none;fillColor=none;" vertex="1" parent="1">
          <mxGeometry x="670" y="410" width="70" height="30" as="geometry" />
        </mxCell>
        <mxCell id="n9BNtuvzOKxnNitowUyj-86" value="提交" style="text;html=1;align=center;verticalAlign=middle;resizable=0;points=[];autosize=1;strokeColor=#36393d;fillColor=#cce5ff;" vertex="1" parent="1">
          <mxGeometry x="750" y="610" width="50" height="30" as="geometry" />
        </mxCell>
        <mxCell id="n9BNtuvzOKxnNitowUyj-87" value="应用名称：" style="text;html=1;align=left;verticalAlign=middle;resizable=0;points=[];autosize=1;strokeColor=none;fillColor=none;" vertex="1" parent="1">
          <mxGeometry x="690" y="445" width="80" height="30" as="geometry" />
        </mxCell>
        <mxCell id="n9BNtuvzOKxnNitowUyj-88" value="应用key：" style="text;html=1;align=left;verticalAlign=middle;resizable=0;points=[];autosize=1;strokeColor=none;fillColor=none;" vertex="1" parent="1">
          <mxGeometry x="690" y="480" width="80" height="30" as="geometry" />
        </mxCell>
        <mxCell id="n9BNtuvzOKxnNitowUyj-91" value="描述：" style="text;html=1;align=left;verticalAlign=middle;resizable=0;points=[];autosize=1;strokeColor=none;fillColor=none;" vertex="1" parent="1">
          <mxGeometry x="690" y="520" width="60" height="30" as="geometry" />
        </mxCell>
        <mxCell id="n9BNtuvzOKxnNitowUyj-93" value="" style="whiteSpace=wrap;html=1;strokeWidth=0;" vertex="1" parent="1">
          <mxGeometry x="920" y="308" width="110" height="22" as="geometry" />
        </mxCell>
        <mxCell id="n9BNtuvzOKxnNitowUyj-94" value="" style="whiteSpace=wrap;html=1;strokeWidth=0;" vertex="1" parent="1">
          <mxGeometry x="750" y="448" width="110" height="22" as="geometry" />
        </mxCell>
        <mxCell id="n9BNtuvzOKxnNitowUyj-95" value="" style="whiteSpace=wrap;html=1;strokeWidth=0;" vertex="1" parent="1">
          <mxGeometry x="750" y="484" width="110" height="22" as="geometry" />
        </mxCell>
        <mxCell id="n9BNtuvzOKxnNitowUyj-96" value="" style="whiteSpace=wrap;html=1;strokeWidth=0;" vertex="1" parent="1">
          <mxGeometry x="750" y="528" width="110" height="52" as="geometry" />
        </mxCell>
        <mxCell id="n9BNtuvzOKxnNitowUyj-99" value="" style="whiteSpace=wrap;html=1;strokeWidth=0;" vertex="1" parent="1">
          <mxGeometry x="750" y="484" width="110" height="22" as="geometry" />
        </mxCell>
        <mxCell id="n9BNtuvzOKxnNitowUyj-100" value="" style="rounded=0;whiteSpace=wrap;html=1;" vertex="1" parent="1">
          <mxGeometry x="20" y="750" width="560" height="290" as="geometry" />
        </mxCell>
        <mxCell id="n9BNtuvzOKxnNitowUyj-101" value="" style="rounded=0;whiteSpace=wrap;html=1;" vertex="1" parent="1">
          <mxGeometry y="750" width="90" height="290" as="geometry" />
        </mxCell>
        <mxCell id="n9BNtuvzOKxnNitowUyj-102" value="聊天机器人系统" style="rounded=0;whiteSpace=wrap;html=1;" vertex="1" parent="1">
          <mxGeometry y="750" width="90" height="30" as="geometry" />
        </mxCell>
        <mxCell id="n9BNtuvzOKxnNitowUyj-103" value="应用配置" style="rounded=0;whiteSpace=wrap;html=1;" vertex="1" parent="1">
          <mxGeometry y="780" width="90" height="30" as="geometry" />
        </mxCell>
        <mxCell id="n9BNtuvzOKxnNitowUyj-104" value="菜单配置" style="rounded=0;whiteSpace=wrap;html=1;fillColor=#ffcc99;strokeColor=#36393d;" vertex="1" parent="1">
          <mxGeometry y="810" width="90" height="30" as="geometry" />
        </mxCell>
        <mxCell id="n9BNtuvzOKxnNitowUyj-105" value="关键词配置" style="rounded=0;whiteSpace=wrap;html=1;" vertex="1" parent="1">
          <mxGeometry y="840" width="90" height="30" as="geometry" />
        </mxCell>
        <mxCell id="n9BNtuvzOKxnNitowUyj-106" value="系统配置" style="rounded=0;whiteSpace=wrap;html=1;" vertex="1" parent="1">
          <mxGeometry y="870" width="90" height="30" as="geometry" />
        </mxCell>
        <mxCell id="n9BNtuvzOKxnNitowUyj-107" value="" style="rounded=0;whiteSpace=wrap;html=1;" vertex="1" parent="1">
          <mxGeometry x="90" y="750" width="490" height="30" as="geometry" />
        </mxCell>
        <mxCell id="n9BNtuvzOKxnNitowUyj-108" value="添加" style="rounded=0;whiteSpace=wrap;html=1;fillColor=#d5e8d4;strokeColor=#82b366;" vertex="1" parent="1">
          <mxGeometry x="100" y="785" width="40" height="20" as="geometry" />
        </mxCell>
        <mxCell id="n9BNtuvzOKxnNitowUyj-109" value="删除" style="rounded=0;whiteSpace=wrap;html=1;fillColor=#f8cecc;strokeColor=#b85450;" vertex="1" parent="1">
          <mxGeometry x="150" y="785" width="40" height="20" as="geometry" />
        </mxCell>
        <mxCell id="n9BNtuvzOKxnNitowUyj-110" value="ID" style="rounded=0;whiteSpace=wrap;html=1;fillColor=#eeeeee;strokeColor=#36393d;" vertex="1" parent="1">
          <mxGeometry x="120" y="810" width="40" height="20" as="geometry" />
        </mxCell>
        <mxCell id="n9BNtuvzOKxnNitowUyj-111" value="所属应用" style="rounded=0;whiteSpace=wrap;html=1;fillColor=#eeeeee;strokeColor=#36393d;" vertex="1" parent="1">
          <mxGeometry x="160" y="810" width="60" height="20" as="geometry" />
        </mxCell>
        <mxCell id="n9BNtuvzOKxnNitowUyj-112" value="标题" style="rounded=0;whiteSpace=wrap;html=1;fillColor=#eeeeee;strokeColor=#36393d;" vertex="1" parent="1">
          <mxGeometry x="220" y="810" width="60" height="20" as="geometry" />
        </mxCell>
        <mxCell id="n9BNtuvzOKxnNitowUyj-113" value="回答" style="rounded=0;whiteSpace=wrap;html=1;fillColor=#eeeeee;strokeColor=#36393d;" vertex="1" parent="1">
          <mxGeometry x="280" y="810" width="60" height="20" as="geometry" />
        </mxCell>
        <mxCell id="n9BNtuvzOKxnNitowUyj-114" value="创建时间" style="rounded=0;whiteSpace=wrap;html=1;fillColor=#eeeeee;strokeColor=#36393d;" vertex="1" parent="1">
          <mxGeometry x="340" y="810" width="80" height="20" as="geometry" />
        </mxCell>
        <mxCell id="n9BNtuvzOKxnNitowUyj-115" value="" style="rounded=0;whiteSpace=wrap;html=1;fillColor=#eeeeee;strokeColor=#36393d;" vertex="1" parent="1">
          <mxGeometry x="100" y="810" width="20" height="20" as="geometry" />
        </mxCell>
        <mxCell id="n9BNtuvzOKxnNitowUyj-116" value="" style="rounded=0;whiteSpace=wrap;html=1;" vertex="1" parent="1">
          <mxGeometry x="100" y="830" width="20" height="20" as="geometry" />
        </mxCell>
        <mxCell id="n9BNtuvzOKxnNitowUyj-117" value="1" style="rounded=0;whiteSpace=wrap;html=1;" vertex="1" parent="1">
          <mxGeometry x="120" y="830" width="40" height="20" as="geometry" />
        </mxCell>
        <mxCell id="n9BNtuvzOKxnNitowUyj-118" value="energy" style="rounded=0;whiteSpace=wrap;html=1;" vertex="1" parent="1">
          <mxGeometry x="160" y="830" width="60" height="20" as="geometry" />
        </mxCell>
        <mxCell id="n9BNtuvzOKxnNitowUyj-119" value="碳咨询" style="rounded=0;whiteSpace=wrap;html=1;" vertex="1" parent="1">
          <mxGeometry x="220" y="830" width="60" height="20" as="geometry" />
        </mxCell>
        <mxCell id="n9BNtuvzOKxnNitowUyj-120" value="xxx" style="rounded=0;whiteSpace=wrap;html=1;" vertex="1" parent="1">
          <mxGeometry x="280" y="830" width="60" height="20" as="geometry" />
        </mxCell>
        <mxCell id="n9BNtuvzOKxnNitowUyj-121" value="&lt;font&gt;2025-01-02&lt;/font&gt;" style="rounded=0;whiteSpace=wrap;html=1;" vertex="1" parent="1">
          <mxGeometry x="340" y="830" width="80" height="20" as="geometry" />
        </mxCell>
        <mxCell id="n9BNtuvzOKxnNitowUyj-122" value="操作" style="rounded=0;whiteSpace=wrap;html=1;fillColor=#eeeeee;strokeColor=#36393d;" vertex="1" parent="1">
          <mxGeometry x="420" y="810" width="80" height="20" as="geometry" />
        </mxCell>
        <mxCell id="n9BNtuvzOKxnNitowUyj-123" value="编辑&amp;nbsp; &amp;nbsp;删除" style="rounded=0;whiteSpace=wrap;html=1;" vertex="1" parent="1">
          <mxGeometry x="420" y="830" width="80" height="20" as="geometry" />
        </mxCell>
        <mxCell id="n9BNtuvzOKxnNitowUyj-126" value="" style="rounded=0;whiteSpace=wrap;html=1;" vertex="1" parent="1">
          <mxGeometry x="680" y="750" width="230" height="250" as="geometry" />
        </mxCell>
        <mxCell id="n9BNtuvzOKxnNitowUyj-127" value="添加菜单" style="text;html=1;align=center;verticalAlign=middle;resizable=0;points=[];autosize=1;strokeColor=none;fillColor=none;" vertex="1" parent="1">
          <mxGeometry x="680" y="750" width="70" height="30" as="geometry" />
        </mxCell>
        <mxCell id="n9BNtuvzOKxnNitowUyj-128" value="应用" style="text;html=1;align=left;verticalAlign=middle;resizable=0;points=[];autosize=1;strokeColor=none;fillColor=none;" vertex="1" parent="1">
          <mxGeometry x="645" y="678" width="50" height="30" as="geometry" />
        </mxCell>
        <mxCell id="n9BNtuvzOKxnNitowUyj-129" value="应用：" style="text;html=1;align=left;verticalAlign=middle;resizable=0;points=[];autosize=1;strokeColor=none;fillColor=none;" vertex="1" parent="1">
          <mxGeometry x="705" y="785" width="60" height="30" as="geometry" />
        </mxCell>
        <mxCell id="n9BNtuvzOKxnNitowUyj-130" value="上级标题：" style="text;html=1;align=left;verticalAlign=middle;resizable=0;points=[];autosize=1;strokeColor=none;fillColor=none;" vertex="1" parent="1">
          <mxGeometry x="705" y="820" width="80" height="30" as="geometry" />
        </mxCell>
        <mxCell id="n9BNtuvzOKxnNitowUyj-131" value="标题：" style="text;html=1;align=left;verticalAlign=middle;resizable=0;points=[];autosize=1;strokeColor=none;fillColor=none;" vertex="1" parent="1">
          <mxGeometry x="705" y="860" width="60" height="30" as="geometry" />
        </mxCell>
        <mxCell id="n9BNtuvzOKxnNitowUyj-132" value="回答：" style="text;html=1;align=left;verticalAlign=middle;resizable=0;points=[];autosize=1;strokeColor=none;fillColor=none;" vertex="1" parent="1">
          <mxGeometry x="705" y="900" width="60" height="30" as="geometry" />
        </mxCell>
        <mxCell id="n9BNtuvzOKxnNitowUyj-133" value="" style="whiteSpace=wrap;html=1;strokeWidth=0;" vertex="1" parent="1">
          <mxGeometry x="740" y="793" width="110" height="22" as="geometry" />
        </mxCell>
      </root>
    </mxGraphModel>
  </diagram>
</mxfile>
